M48
; DRILL file KiCad 10.0.0 date 2026-04-04T18:59:57
; FORMAT={-:-/ absolute / metric / decimal}
; #@! TF.CreationDate,2026-04-04T18:59:57-05:00
; #@! TF.GenerationSoftware,Kicad,Pcbnew,10.0.0
; #@! TF.FileFunction,Plated,1,2,PTH
FMAT,2
METRIC
; #@! TA.AperFunction,Plated,PTH,ComponentDrill
T1C0.700
; #@! TA.AperFunction,Plated,PTH,ComponentDrill
T2C0.800
; #@! TA.AperFunction,Plated,PTH,ComponentDrill
T3C0.900
; #@! TA.AperFunction,Plated,PTH,ComponentDrill
T4C1.100
%
G90
G05
T1
X108.0Y-96.69
X108.0Y-104.31
X126.0Y-50.0
X126.19Y-35.0
X126.19Y-38.0
X126.19Y-41.0
X126.19Y-44.0
X126.19Y-47.0
X126.19Y-59.0
X126.19Y-72.0
X126.19Y-75.15
X126.19Y-78.3
X126.19Y-81.45
X126.19Y-84.6
X126.19Y-87.75
X126.38Y-53.0
X126.38Y-56.0
X126.545Y-62.225
X126.545Y-65.375
X126.545Y-68.525
X128.25Y-100.94
X128.25Y-108.56
X128.25Y-110.94
X128.25Y-118.56
X133.62Y-50.0
X133.81Y-35.0
X133.81Y-38.0
X133.81Y-41.0
X133.81Y-44.0
X133.81Y-47.0
X133.81Y-59.0
X133.81Y-72.0
X133.81Y-75.15
X133.81Y-78.3
X133.81Y-81.45
X133.81Y-84.6
X133.81Y-87.75
X134.0Y-53.0
X134.0Y-56.0
X134.165Y-62.225
X134.165Y-65.375
X134.165Y-68.525
X152.0Y-86.3
X152.0Y-90.7
X152.0Y-93.85
X152.0Y-97.0
X152.0Y-100.15
X152.0Y-103.3
X159.62Y-86.3
X159.62Y-90.7
X159.62Y-93.85
X159.62Y-97.0
X159.62Y-100.15
X159.62Y-103.3
T2
X98.22Y-75.0
X98.22Y-82.62
X100.76Y-75.0
X100.76Y-82.62
X103.3Y-75.0
X103.3Y-82.62
X105.84Y-75.0
X105.84Y-82.62
X108.0Y-107.0
X108.0Y-112.0
X108.38Y-75.0
X108.38Y-82.62
X110.92Y-75.0
X110.92Y-82.62
X112.0Y-107.0
X112.0Y-112.0
X113.46Y-75.0
X113.46Y-82.62
X116.0Y-75.0
X116.0Y-82.62
X143.92Y-42.0
X143.92Y-57.0
X143.92Y-65.0
X143.92Y-73.0
X143.92Y-81.0
X144.46Y-50.0
X146.46Y-42.0
X146.46Y-57.0
X146.46Y-65.0
X146.46Y-73.0
X146.46Y-81.0
X147.0Y-50.0
X149.0Y-42.0
X149.0Y-57.0
X149.0Y-65.0
X149.0Y-73.0
X149.0Y-81.0
X149.54Y-50.0
T3
X114.0Y-98.5
X114.0Y-101.04
X162.46Y-66.0
X164.46Y-50.0
X165.0Y-66.0
X167.0Y-50.0
X171.46Y-57.0
X171.46Y-76.0
X172.0Y-66.0
X174.0Y-57.0
X174.0Y-76.0
X174.54Y-66.0
X181.46Y-57.0
X181.46Y-76.0
X181.73Y-66.0
X184.0Y-57.0
X184.0Y-76.0
X184.27Y-66.0
X191.0Y-66.0
X191.46Y-57.0
X191.46Y-76.0
X193.54Y-66.0
X194.0Y-57.0
X194.0Y-76.0
X199.46Y-50.0
X199.46Y-66.0
X202.0Y-50.0
X202.0Y-66.0
T4
X111.0Y-86.5
X111.0Y-93.0
X115.5Y-86.5
X115.5Y-93.0
M30
